<?xml version="1.0" standalone="no"?>
<!DOCTYPE svg PUBLIC "-//W3C//DTD SVG 20010904//EN"
 "http://www.w3.org/TR/2001/REC-SVG-20010904/DTD/svg10.dtd">
<svg version="1.0" xmlns="http://www.w3.org/2000/svg"
 width="1080.000000pt" height="1080.000000pt" viewBox="0 0 1080.000000 1080.000000"
 preserveAspectRatio="xMidYMid meet">
<metadata>
Created by potrace 1.14, written by Peter Selinger 2001-2017
</metadata>
<g transform="translate(0.000000,1080.000000) scale(0.100000,-0.100000)"
fill="#000000" stroke="none">
<path d="M4465 9560 c-533 -534 -973 -970 -976 -970 -4 0 -50 155 -104 345
l-97 345 -195 0 c-193 0 -194 0 -188 -21 4 -12 67 -233 140 -491 73 -258 136
-472 139 -476 4 -3 73 60 155 142 l148 148 18 -64 c64 -230 556 -1962 558
-1964 1 -1 246 610 544 1359 l541 1362 40 3 39 3 64 -163 c35 -90 276 -702
534 -1360 259 -659 473 -1198 476 -1198 3 0 160 537 349 1193 188 655 345
1196 348 1201 2 4 71 -58 152 -139 l148 -148 25 84 c47 155 147 508 147 518 0
7 -64 11 -190 11 -104 0 -190 -2 -190 -3 0 -5 -79 -277 -86 -297 -3 -9 -270
252 -787 768 l-782 782 -970 -970z"/>
<path d="M7950 8648 l0 -633 -325 325 c-215 215 -326 319 -329 309 -8 -20
-906 -3150 -906 -3155 0 -2 -17 -4 -37 -4 l-38 0 -560 1429 c-308 786 -563
1427 -566 1423 -3 -4 -262 -647 -575 -1429 l-568 -1423 -36 0 -36 0 -394 1388
c-216 763 -395 1389 -397 1392 -2 2 -647 -639 -1433 -1425 l-1430 -1430 1492
-1493 1493 -1492 5 1282 5 1283 183 3 182 2 0 -1472 0 -1473 -178 178 c-97 97
-181 177 -185 177 -4 0 -7 -279 -7 -620 l0 -620 185 0 185 0 0 442 0 443 877
-878 878 -877 932 932 933 933 0 -498 0 -497 185 0 185 0 0 682 0 683 -185
-185 -185 -185 0 405 0 405 -614 993 -614 992 218 0 218 0 483 -780 c401 -647
486 -777 496 -764 6 8 221 359 478 780 l467 764 219 0 219 0 -138 -227 c-76
-126 -346 -570 -600 -989 l-462 -761 0 -224 0 -224 1435 1435 c789 789 1435
1439 1435 1445 0 6 -499 510 -1110 1120 l-1110 1110 0 -603 0 -602 -185 0
-185 0 0 787 0 788 185 -185 185 -185 0 818 0 817 -185 0 -185 0 0 -632z m303
-2618 c74 -28 149 -104 178 -179 28 -75 24 -185 -9 -253 -28 -57 -92 -122
-146 -150 -58 -30 -177 -36 -247 -13 -74 25 -159 110 -188 188 -62 169 21 346
194 414 49 19 157 16 218 -7z m-2633 -2950 l0 -1920 -182 2 -183 3 -3 1905
c-1 1048 0 1911 3 1918 3 9 50 12 185 12 l180 0 0 -1920z"/>
</g>
</svg>
